# xmcd CD database file
#
# Track frame offsets:
#	150
#	20672
#	37403
#	57017
#	75778
#	92279
#	107438
#	121694
#	138581
#	155417
#
# Disc length: 2408 seconds
#
# Revision: 0
# Processed by: cddbd v1.5.2PL0 Copyright (c) Steve Scherf et al.
# Submitted via: CDex 1.70beta2
#
DISCID=6e09660a
DTITLE=Body and Soul - Inner Peace
DYEAR=2009
DGENRE=New Age
TTITLE0=Gentle Retreat
TTITLE1=Silent Calm
TTITLE2=Looking Forward
TTITLE3=Lost In Dreams
TTITLE4=Deeper And Deeper
TTITLE5=Sancuary
TTITLE6=Oneness
TTITLE7=Healing Harmonies
TTITLE8=Free Spirit
TTITLE9=Reflections
EXTD=YEAR: 2009
EXTT0=
EXTT1=
EXTT2=
EXTT3=
EXTT4=
EXTT5=
EXTT6=
EXTT7=
EXTT8=
EXTT9=
PLAYORDER=
